<svg width="1141" height="129" xmlns="http://www.w3.org/2000/svg">

 <g>
  <title>background</title>
  <rect fill="none" id="canvas_background" height="131" width="1143" y="-1" x="-1"/>
 </g>
 <g>
  <title>Layer 1</title>
  <g stroke="null" id="surface1">
   <path stroke="null" id="svg_1" fill-rule="nonzero" fill="rgb(99.607843%,99.607843%,99.607843%)" d="m1110.55468,7.61718l-71.28516,0l-78.37109,34.92188l-46.32422,-34.92188l-89.28906,0l73.20703,58.5625l-118.57031,55.20704l71.40625,0l76.44922,-33.96485l46.32422,33.96485l100.57031,0l-82.6875,-61.32422l118.57031,-52.44532zm-692.82812,-1.08203l-24.125,0c-8.03907,17.88282 -19.80079,42.84375 -19.80079,42.84375l-30.72265,73.20703l53.88672,0l33.48047,-84.96875l125.17578,84.96875l56.16406,0l45.36328,-113.28906c0,0 -24.96094,0 -56.16406,0l-10.44141,25.5625l-0.48047,0.83985l-23.64062,59.52343l-121.33203,-88.32812l0.48047,0c0,0 -29.28516,-0.48047 -27.84375,-0.48047l0,0.12109zm-387.28125,114.61328l213.02343,0c45.36328,-0.48046 70.32813,-39.125 70.32813,-39.125l29.28125,-74.16796c0,0 -210.14063,0 -212.0625,0c-45.36328,0 -70.80469,39.24218 -70.80469,39.24218l-11.76172,29.16407c0,0 -18.0039,44.40625 -18.0039,44.88671zm85.44921,-72.25c0,0 9,-14.64062 29.28516,-14.64062l133.69141,0l-18,45.36328c0,0 -15.96094,15.60156 -32.52344,15.60156l-130.8125,0l18.35937,-46.32422zm0,0"/>
   <path stroke="null" id="svg_2" fill-rule="evenodd" fill="rgb(100%,92.941177%,0%)" d="m793.60156,7.61718l0,0.47657l-48.24219,113.29297l-55.6875,0l45.36719,-113.76954l58.5625,0zm0,0"/>
  </g>
  <path id="svg_4" d="m69.57431,486.54083" opacity="0.5" stroke-width="1.5" stroke="#000" fill="#fff"/>
 </g>
</svg>