<?xml version="1.0" encoding="UTF-8"?>
<!DOCTYPE svg PUBLIC "-//W3C//DTD SVG 1.1//EN" "http://www.w3.org/Graphics/SVG/1.1/DTD/svg11.dtd">
<!-- Creator: CorelDRAW X8 -->
<svg xmlns="http://www.w3.org/2000/svg" xml:space="preserve" width="100mm" height="100mm" version="1.1" style="shape-rendering:geometricPrecision; text-rendering:geometricPrecision; image-rendering:optimizeQuality; fill-rule:evenodd; clip-rule:evenodd"
viewBox="0 0 10000 10000"
 xmlns:xlink="http://www.w3.org/1999/xlink">
 <defs>
  <style type="text/css">
   <![CDATA[
    .fil1 {fill:#FFED00}
    .fil0 {fill:#FEFEFE;fill-rule:nonzero}
   ]]>
  </style>
 </defs>
 <g id="Слой_x0020_1">
  <metadata id="CorelCorpID_0Corel-Layer"/>
  <path class="fil0" d="M9598 4111l-594 0 -653 291 -386 -291 -744 0 610 488 -988 460 595 0 637 -283 386 283 838 0 -689 -511 988 -437zm-5773 -9l-201 0c-67,149 -165,357 -165,357l-256 610 449 0 279 -708 1043 708 0 0 468 0 378 -944c0,0 -208,0 -468,0l-87 213 -4 7 -197 496 -1011 -736 4 0c0,0 -244,-4 -232,-4l0 1zm-3227 955l1775 0c378,-4 586,-326 586,-326l244 -618c0,0 -1751,0 -1767,0 -378,0 -590,327 -590,327l-98 243c0,0 -150,370 -150,374zm712 -602c0,0 75,-122 244,-122l1114 0 -150 378c0,0 -133,130 -271,130l-1090 0 153 -386z"/>
  <polygon class="fil1" points="6957,4111 6957,4115 6555,5059 6091,5059 6469,4111 "/>
 </g>
</svg>
