<?xml version="1.0" standalone="no"?>
<!DOCTYPE svg PUBLIC "-//W3C//DTD SVG 20010904//EN"
 "http://www.w3.org/TR/2001/REC-SVG-20010904/DTD/svg10.dtd">
<svg version="1.0" xmlns="http://www.w3.org/2000/svg"
 width="1199.000000pt" height="129.000000pt" viewBox="0 0 1199.000000 129.000000"
 preserveAspectRatio="xMidYMid meet">

<g transform="translate(0.000000,129.000000) scale(0.100000,-0.100000)"
fill="#000000" stroke="none">
<path d="M4021 1268 c-5 -13 -51 -113 -102 -223 -51 -110 -172 -389 -269 -620
l-177 -420 295 -3 c207 -2 298 1 302 9 4 6 87 214 185 462 97 249 180 455 184
459 4 5 319 -204 699 -462 l693 -470 312 0 312 0 248 623 c136 342 248 625
247 630 0 4 -139 7 -308 7 l-308 0 -22 -52 c-13 -29 -97 -240 -188 -468 -91
-228 -169 -418 -173 -423 -4 -4 -309 212 -677 480 l-669 488 -288 3 -287 3 -9
-23z"/>
<path d="M8840 1266 c8 -8 188 -152 400 -321 212 -168 386 -309 387 -313 2 -4
-287 -142 -642 -307 l-644 -300 390 -3 391 -2 418 186 c264 117 424 183 432
178 7 -5 122 -88 255 -186 l242 -178 556 2 556 3 -451 334 c-248 184 -447 337
-443 341 4 4 297 135 650 291 l643 284 -390 3 -389 2 -437 -194 -436 -195
-258 194 -258 195 -493 0 c-426 0 -491 -2 -479 -14z"/>
<path d="M968 1260 c-118 -20 -255 -79 -375 -162 -84 -58 -233 -209 -261 -265
-11 -21 -90 -213 -175 -427 -101 -251 -151 -389 -144 -391 7 -3 575 -1 1262 3
l1250 8 95 32 c139 46 245 111 366 223 58 53 118 114 133 135 16 21 93 201
171 399 78 198 150 381 161 408 l19 47 -1228 -1 c-675 -1 -1248 -5 -1274 -9z
m1690 -533 l-100 -252 -62 -47 c-78 -60 -177 -106 -252 -118 -76 -13 -1494
-13 -1494 -1 0 5 45 123 101 263 110 277 125 301 223 354 94 52 104 52 922 53
l761 1 -99 -253z"/>
</g>
</svg>
